<svg xmlns="http://www.w3.org/2000/svg" xmlns:xlink="http://www.w3.org/1999/xlink" width="500" zoomAndPan="magnify" viewBox="0 0 375 374.999991" height="500" preserveAspectRatio="xMidYMid meet" version="1.0"><defs><clipPath id="b3aaf6aa6f"><path d="M 119 32 L 354 32 L 354 347 L 119 347 Z M 119 32 " clip-rule="nonzero"/></clipPath><clipPath id="ea136de822"><path d="M 273.089844 10.710938 L 374.996094 70.699219 L 199.722656 368.464844 L 97.8125 308.476562 Z M 273.089844 10.710938 " clip-rule="nonzero"/></clipPath><clipPath id="a7a278fbb8"><path d="M 324.042969 40.703125 C 337.554688 48.660156 347.355469 61.65625 351.289062 76.835938 C 355.21875 92.019531 352.957031 108.136719 345.003906 121.652344 L 229.792969 317.378906 C 221.835938 330.894531 208.839844 340.695312 193.660156 344.625 C 178.476562 348.554688 162.359375 346.292969 148.84375 338.339844 C 135.328125 330.386719 125.53125 317.386719 121.597656 302.207031 C 117.667969 287.027344 119.929688 270.90625 127.882812 257.390625 L 243.09375 61.664062 C 251.050781 48.152344 264.046875 38.351562 279.226562 34.417969 C 294.40625 30.488281 310.527344 32.75 324.042969 40.703125 Z M 324.042969 40.703125 " clip-rule="nonzero"/></clipPath><clipPath id="b9c5e0735b"><path d="M 0 0 L 235 0 L 235 315 L 0 315 Z M 0 0 " clip-rule="nonzero"/></clipPath><clipPath id="a10f18f3f0"><path d="M 154.089844 -21.289062 L 255.996094 38.699219 L 80.722656 336.464844 L -21.1875 276.476562 Z M 154.089844 -21.289062 " clip-rule="nonzero"/></clipPath><clipPath id="eee4eedf15"><path d="M 205.042969 8.703125 C 218.554688 16.660156 228.355469 29.65625 232.289062 44.835938 C 236.21875 60.019531 233.957031 76.136719 226.003906 89.652344 L 110.792969 285.378906 C 102.835938 298.894531 89.839844 308.695312 74.660156 312.625 C 59.476562 316.554688 43.359375 314.292969 29.84375 306.339844 C 16.328125 298.386719 6.53125 285.386719 2.597656 270.207031 C -1.332031 255.027344 0.929688 238.90625 8.882812 225.390625 L 124.09375 29.664062 C 132.050781 16.152344 145.046875 6.351562 160.226562 2.417969 C 175.40625 -1.511719 191.527344 0.75 205.042969 8.703125 Z M 205.042969 8.703125 " clip-rule="nonzero"/></clipPath><clipPath id="513a3a1bee"><rect x="0" width="235" y="0" height="315"/></clipPath><clipPath id="638e0b0262"><path d="M 0 32.242188 L 121.832031 32.242188 L 121.832031 154.070312 L 0 154.070312 Z M 0 32.242188 " clip-rule="nonzero"/></clipPath><clipPath id="161ff5ea13"><path d="M 60.914062 32.242188 C 27.273438 32.242188 0 59.511719 0 93.15625 C 0 126.796875 27.273438 154.070312 60.914062 154.070312 C 94.558594 154.070312 121.832031 126.796875 121.832031 93.15625 C 121.832031 59.511719 94.558594 32.242188 60.914062 32.242188 Z M 60.914062 32.242188 " clip-rule="nonzero"/></clipPath><clipPath id="125dcde05f"><path d="M 0 0.242188 L 121.832031 0.242188 L 121.832031 122.070312 L 0 122.070312 Z M 0 0.242188 " clip-rule="nonzero"/></clipPath><clipPath id="d0128bf050"><path d="M 60.914062 0.242188 C 27.273438 0.242188 0 27.511719 0 61.15625 C 0 94.796875 27.273438 122.070312 60.914062 122.070312 C 94.558594 122.070312 121.832031 94.796875 121.832031 61.15625 C 121.832031 27.511719 94.558594 0.242188 60.914062 0.242188 Z M 60.914062 0.242188 " clip-rule="nonzero"/></clipPath><clipPath id="78739e20fa"><rect x="0" width="122" y="0" height="123"/></clipPath></defs><g clip-path="url(#b3aaf6aa6f)"><g clip-path="url(#ea136de822)"><g clip-path="url(#a7a278fbb8)"><g transform="matrix(1, 0, 0, 1, 119, 32)"><g clip-path="url(#513a3a1bee)"><g clip-path="url(#b9c5e0735b)"><g clip-path="url(#a10f18f3f0)"><g clip-path="url(#eee4eedf15)"><path fill="#1b17ff" d="M 154.089844 -21.289062 L 255.996094 38.699219 L 80.722656 336.464844 L -21.1875 276.476562 Z M 154.089844 -21.289062 " fill-opacity="1" fill-rule="nonzero"/></g></g></g></g></g></g></g></g><g clip-path="url(#638e0b0262)"><g clip-path="url(#161ff5ea13)"><g transform="matrix(1, 0, 0, 1, 0, 32)"><g clip-path="url(#78739e20fa)"><g clip-path="url(#125dcde05f)"><g clip-path="url(#d0128bf050)"><path fill="#1b17ff" d="M 0 0.242188 L 121.832031 0.242188 L 121.832031 122.070312 L 0 122.070312 Z M 0 0.242188 " fill-opacity="1" fill-rule="nonzero"/></g></g></g></g></g></g></svg>